<svg xmlns="http://www.w3.org/2000/svg" width="1440" height="810" viewBox="0 0 1440 810" role="img" aria-hidden="true" fill="none">
  <defs>
    <linearGradient id="sidebarGradient" x1="0" x2="0" y1="0" y2="810" gradientUnits="userSpaceOnUse">
      <stop stop-color="var(--color-sidebar-gradient-top, #F7F9F8)" />
      <stop offset=".52" stop-color="var(--color-sidebar-gradient-mid, #F1F5F3)" />
      <stop offset="1" stop-color="var(--color-sidebar-gradient-end, #ECF2EF)" />
    </linearGradient>
    <filter id="quietShadow" x="-20%" y="-20%" width="140%" height="140%">
      <feDropShadow dx="0" dy="18" stdDeviation="26" flood-color="#0F172A" flood-opacity=".08" />
    </filter>
  </defs>

  <rect width="1440" height="810" fill="var(--color-app-background, #FAFBFA)" />
  <rect width="455" height="810" fill="url(#sidebarGradient)" />

  <g opacity=".7" stroke="var(--color-border-subtle, #EEF0F1)" stroke-width="1">
    <path d="M92 124h196" />
    <path d="M92 170h134" />
    <path d="M92 216h168" />
  </g>

  <g filter="url(#quietShadow)">
    <rect x="520" y="92" width="760" height="582" rx="28" fill="var(--color-main-surface, #FFFFFF)" />
    <rect x="520.5" y="92.5" width="759" height="581" rx="27.5" stroke="var(--color-border-subtle, #EEF0F1)" />

    <rect x="520" y="92" width="176" height="582" rx="28" fill="var(--color-surface-subtle, #F6F8F7)" />
    <path d="M696 118v530" stroke="var(--color-border-subtle, #EEF0F1)" />

    <g stroke="var(--color-text-tertiary, #8A9299)" stroke-width="1.5" stroke-linecap="round" stroke-linejoin="round">
      <rect x="552" y="134" width="28" height="28" rx="9" />
      <path d="M560 148h12" />
      <path d="M558 206h52" />
      <path d="M558 242h74" />
      <path d="M558 278h58" />
      <path d="M558 314h66" />
      <path d="M558 350h44" />
    </g>

    <g fill="var(--color-hover-surface, #F2F4F3)">
      <rect x="548" y="225" width="116" height="32" rx="10" />
      <rect x="548" y="333" width="92" height="32" rx="10" />
    </g>
    <rect x="548" y="225" width="3" height="32" rx="1.5" fill="var(--color-accent-blue, #2563EB)" />

    <g transform="translate(730 130)">
      <rect width="286" height="238" rx="18" fill="var(--color-surface-subtle, #F6F8F7)" />
      <rect x="18" y="18" width="78" height="24" rx="12" fill="var(--color-main-surface, #FFFFFF)" />
      <rect x="104" y="18" width="64" height="24" rx="12" fill="var(--color-panel-surface, #F3F6F4)" />
      <rect x="18" y="58" width="248" height="156" rx="16" fill="var(--color-main-surface, #FFFFFF)" />
      <g stroke="var(--color-text-tertiary, #8A9299)" stroke-width="1.5" stroke-linecap="round" stroke-linejoin="round">
        <rect x="36" y="78" width="194" height="32" rx="10" />
        <path d="M52 94h62" />
        <rect x="36" y="124" width="148" height="30" rx="10" />
        <path d="M52 139h74" />
        <rect x="36" y="170" width="198" height="28" rx="10" />
        <path d="M52 184h92" />
      </g>
      <g stroke="var(--color-accent-blue, #2563EB)" stroke-width="1.5" stroke-linecap="round" stroke-linejoin="round">
        <path d="M35 162h214" />
        <circle cx="35" cy="162" r="2.5" fill="var(--color-accent-blue, #2563EB)" />
        <circle cx="249" cy="162" r="2.5" fill="var(--color-accent-blue, #2563EB)" />
      </g>
    </g>

    <g transform="translate(1040 130)">
      <rect width="194" height="238" rx="18" fill="var(--color-surface-subtle, #F6F8F7)" />
      <g fill="var(--color-main-surface, #FFFFFF)">
        <rect x="18" y="20" width="158" height="34" rx="12" />
        <rect x="18" y="68" width="158" height="34" rx="12" />
        <rect x="18" y="116" width="158" height="34" rx="12" />
      </g>
      <g stroke="var(--color-text-tertiary, #8A9299)" stroke-width="1.5" stroke-linecap="round">
        <path d="M36 37h70" />
        <path d="M36 85h86" />
        <path d="M36 133h62" />
      </g>
      <rect x="18" y="168" width="44" height="28" rx="14" fill="var(--color-primary-black, #0D0D0E)" />
      <rect x="72" y="168" width="72" height="28" rx="14" fill="var(--color-danger-soft, #FCECEC)" />
    </g>

    <g transform="translate(730 400)">
      <rect width="504" height="210" rx="18" fill="var(--color-main-surface, #FFFFFF)" stroke="var(--color-border-subtle, #EEF0F1)" />
      <g stroke-width="1.5" stroke-linecap="round" stroke-linejoin="round">
        <g stroke="var(--color-text-tertiary, #8A9299)">
          <path d="M36 50h72" />
          <path d="M36 82h120" />
          <path d="M36 114h94" />
          <path d="M36 146h112" />
          <path d="M232 50h72" />
          <path d="M232 82h146" />
          <path d="M232 114h118" />
        </g>
        <g stroke="var(--color-border-default, #E2E6E8)">
          <path d="M192 34v140" />
          <path d="M38 66h420" />
          <path d="M38 98h420" />
          <path d="M38 130h420" />
        </g>
        <g stroke="var(--color-accent-blue, #2563EB)">
          <circle cx="340" cy="164" r="5" />
          <path d="M350 164h42" />
          <path d="m388 160 4 4-4 4" />
        </g>
      </g>
      <g transform="translate(332 140)">
        <rect width="136" height="42" rx="14" fill="var(--color-info-soft, #EAF2FB)" />
        <g stroke="var(--color-info, #3B6EA8)" stroke-width="1.5" stroke-linecap="round" stroke-linejoin="round" opacity=".62">
          <circle cx="20" cy="21" r="3" />
          <circle cx="34" cy="15" r="2.5" />
          <circle cx="34" cy="27" r="2.5" />
          <path d="M23 20 31 16" />
          <path d="M23 22 31 26" />
          <path d="M50 17h54" />
          <path d="M50 25h36" />
        </g>
      </g>
    </g>
  </g>

  <g transform="translate(346 522)" stroke="var(--color-text-tertiary, #8A9299)" stroke-width="1.5" stroke-linecap="round" stroke-linejoin="round" opacity=".72">
    <rect x="0" y="0" width="116" height="74" rx="18" fill="var(--color-main-surface, #FFFFFF)" />
    <path d="M26 24h42" />
    <path d="M26 40h64" />
    <path d="M26 56h32" />
    <path d="M92 20h.01" />
    <path d="M92 30h.01" />
    <path d="M92 40h.01" />
  </g>

  <circle cx="1210" cy="626" r="18" fill="var(--color-primary-black, #0D0D0E)" />
  <path d="M1204 626h12" stroke="var(--color-text-inverse, #FFFFFF)" stroke-width="1.5" stroke-linecap="round" />
  <path d="m1212 621 5 5-5 5" stroke="var(--color-text-inverse, #FFFFFF)" stroke-width="1.5" stroke-linecap="round" stroke-linejoin="round" />
</svg>
