<svg xmlns="http://www.w3.org/2000/svg" width="160" height="120" viewBox="0 0 160 120" role="img" aria-hidden="true" fill="none" stroke="currentColor" stroke-width="1.5" stroke-linecap="round" stroke-linejoin="round">
  <style>
    .lh-base { color: var(--lh-illustration-base, currentColor); }
    .lh-muted { color: var(--lh-illustration-muted, currentColor); opacity: .52; }
    .lh-soft { color: var(--lh-illustration-soft, currentColor); opacity: .1; }
    .lh-accent { color: var(--lh-illustration-accent, currentColor); }
  </style>
  <g class="lh-soft" stroke="none" fill="currentColor">
    <rect x="24" y="22" width="112" height="72" rx="16" />
  </g>
  <g class="lh-base">
    <rect x="28" y="26" width="28" height="64" rx="8" />
    <rect x="66" y="26" width="66" height="64" rx="10" />
    <path d="M73 39h20" />
    <path d="M73 50h34" />
    <path d="M73 73h42" />
  </g>
  <g class="lh-muted">
    <path d="M36 42h12" />
    <path d="M36 54h14" />
    <path d="M36 66h10" />
    <path d="M75 61h30" />
    <rect x="83" y="31" width="16" height="5" rx="2.5" />
    <rect x="102" y="31" width="16" height="5" rx="2.5" />
  </g>
  <g class="lh-accent">
    <path d="M72 66h52" />
    <circle cx="72" cy="66" r="2" />
    <circle cx="124" cy="66" r="2" />
    <rect x="47" y="71" width="20" height="12" rx="4" />
    <path d="m60 77 8 2.5-2.5-8" />
  </g>
</svg>
